<svg width="1584" height="421" viewBox="0 0 1584 421" fill="none" xmlns="http://www.w3.org/2000/svg">
<path d="M798.058 192.92C798.002 192.917 797.946 192.93 797.898 192.959C797.85 192.987 797.812 193.029 797.788 193.08L774.118 245.89C774.098 245.934 774.068 245.973 774.032 246.005C773.996 246.037 773.953 246.06 773.907 246.074C773.861 246.087 773.813 246.09 773.767 246.082C773.72 246.075 773.676 246.057 773.638 246.03C767.868 242.12 759.588 237.71 752.438 235.74C734.698 230.86 714.108 233.17 699.558 245.07C690.158 252.77 685.138 264.2 682.638 276.14C682.058 278.913 681.771 284.203 681.778 292.01C681.824 350.237 681.811 390.48 681.738 412.74C681.735 412.908 681.666 413.068 681.547 413.186C681.427 413.304 681.266 413.37 681.098 413.37H593.348C593.239 413.37 593.135 413.327 593.058 413.25C592.981 413.173 592.938 413.069 592.938 412.96V163.74C592.938 163.597 592.995 163.459 593.096 163.358C593.197 163.257 593.335 163.2 593.478 163.2H681.368C681.466 163.2 681.56 163.239 681.629 163.308C681.699 163.378 681.738 163.472 681.738 163.57V200.45C681.74 200.558 681.776 200.663 681.841 200.749C681.906 200.835 681.997 200.898 682.101 200.929C682.204 200.96 682.315 200.958 682.417 200.922C682.519 200.886 682.606 200.819 682.668 200.73C691.848 187.06 703.058 175.56 716.508 167.29C738.728 153.63 766.378 154.55 790.378 164.54C794.111 166.093 796.604 167.157 797.858 167.73C797.91 167.754 797.967 167.764 798.024 167.761C798.081 167.757 798.136 167.74 798.184 167.71C798.232 167.68 798.271 167.638 798.298 167.589C798.325 167.541 798.339 167.486 798.338 167.43V0.410004C798.338 0.301265 798.38 0.196977 798.455 0.120087C798.53 0.0431968 798.632 0 798.738 0H885.648C885.873 0 886.089 0.0895565 886.249 0.248962C886.408 0.408368 886.498 0.624557 886.498 0.849991V249.38C886.499 249.447 886.52 249.512 886.557 249.568C886.595 249.623 886.647 249.667 886.708 249.692C886.769 249.718 886.836 249.725 886.9 249.712C886.964 249.699 887.022 249.667 887.068 249.62L971.548 164.01C971.795 163.76 972.089 163.561 972.414 163.426C972.738 163.29 973.086 163.22 973.438 163.22H1082.4C1082.53 163.221 1082.66 163.261 1082.77 163.335C1082.89 163.409 1082.97 163.514 1083.03 163.637C1083.08 163.76 1083.1 163.896 1083.07 164.028C1083.05 164.159 1082.99 164.282 1082.9 164.38L971.468 282.52C971.325 282.67 971.247 282.87 971.249 283.077C971.251 283.284 971.333 283.482 971.478 283.63C996.384 309.23 1016.21 329.52 1030.95 344.5C1037.74 351.39 1043.17 357.24 1048.43 362.48C1053.45 367.473 1064.51 378.917 1081.61 396.81C1086.65 402.09 1091.76 406.83 1096.17 412.56C1096.22 412.627 1096.25 412.706 1096.26 412.79C1096.26 412.873 1096.25 412.957 1096.21 413.031C1096.17 413.106 1096.12 413.169 1096.04 413.213C1095.97 413.257 1095.89 413.28 1095.81 413.28H984.698C984.514 413.28 984.332 413.244 984.162 413.173C983.992 413.103 983.838 413 983.708 412.87L887.108 316.28C887.055 316.226 886.987 316.19 886.913 316.175C886.838 316.16 886.762 316.167 886.692 316.196C886.622 316.225 886.563 316.275 886.521 316.338C886.479 316.4 886.457 316.474 886.458 316.55V412.67C886.458 412.834 886.392 412.992 886.276 413.108C886.16 413.225 886.002 413.29 885.838 413.29H799.618C799.292 413.29 798.979 413.16 798.748 412.93C798.517 412.699 798.388 412.386 798.388 412.06C798.321 321.273 798.328 248.357 798.408 193.31C798.408 193.07 798.291 192.94 798.058 192.92Z" fill="black"></path>
<path d="M291.288 298.48C289.348 264.85 298.988 229.6 322.008 203.96C343.038 180.54 372.098 165.41 403.228 159.25C413.548 157.21 425.148 156.42 435.098 155.98C444.588 155.56 454.878 156.9 465.858 158.27C471.084 158.917 475.558 159.73 479.278 160.71C497.511 165.49 513.368 172.523 526.848 181.81C546.681 195.483 561.504 213.157 571.318 234.83C575.538 244.143 578.558 254.387 580.378 265.56C584.878 293.17 582.088 324.33 568.628 349.28C564.261 357.36 560.028 363.82 555.928 368.66C543.094 383.787 528.451 395.393 511.998 403.48C483.848 417.31 453.518 421.62 422.108 419.49C381.788 416.76 341.148 398.92 315.988 366.46C300.978 347.1 292.738 323.56 291.288 298.48ZM379.318 289.2C379.388 322.35 403.588 348.02 437.318 347.94C471.048 347.87 495.138 322.1 495.068 288.94C494.988 255.79 470.798 230.12 437.068 230.19C403.328 230.27 379.248 256.04 379.318 289.2Z" fill="black"></path>
<path d="M1138.64 300.95C1138.5 300.95 1138.37 301.002 1138.27 301.095C1138.17 301.188 1138.12 301.315 1138.11 301.45C1137.86 304.797 1138.23 309.113 1139.23 314.4C1142.89 333.87 1157.8 347.15 1176.9 351.76C1198.78 357.04 1222.57 352.13 1239.76 337.69C1244.36 333.817 1248.03 330.37 1250.76 327.35C1250.85 327.249 1250.97 327.181 1251.1 327.154C1251.23 327.127 1251.37 327.143 1251.5 327.2C1259.34 331.07 1266.47 335.25 1274.38 339.26C1288.96 346.66 1299.73 352.013 1306.68 355.32C1306.72 355.341 1306.76 355.37 1306.79 355.406C1306.82 355.441 1306.85 355.483 1306.86 355.528C1306.88 355.573 1306.88 355.621 1306.88 355.667C1306.88 355.714 1306.86 355.759 1306.84 355.8C1295.83 376.013 1280.26 391.597 1260.12 402.55C1256.1 404.737 1250.06 407.437 1242.02 410.65C1237.16 412.583 1229.95 414.55 1220.38 416.55C1200.02 420.803 1179.94 421.333 1160.16 418.14C1127.61 412.89 1095.24 392.66 1075.34 367.74C1056.3 343.9 1046.29 314.37 1047.56 283.81C1048.66 257.18 1057.84 230.95 1074.08 209.62C1096.6 180.06 1132.88 160.47 1169.88 156.91C1172.24 156.683 1176.9 156.397 1183.86 156.05C1194.67 155.51 1204.11 156.87 1215.61 158.5C1220.13 159.14 1225.2 160.357 1230.81 162.15C1239.59 164.963 1248.11 168.78 1256.35 173.6C1264.53 178.393 1271.83 184.19 1278.25 190.99C1292.13 205.717 1301.57 222.763 1306.55 242.13C1311.45 261.183 1313.23 280.56 1311.91 300.26C1311.9 300.448 1311.81 300.623 1311.67 300.751C1311.54 300.879 1311.36 300.951 1311.17 300.95H1138.64ZM1234.08 253.07C1232.22 233.13 1219.45 218.71 1199.86 214.09C1184.25 210.41 1166.98 214.24 1154.5 224.31C1145.79 231.337 1140.55 240.917 1138.77 253.05C1138.76 253.135 1138.76 253.222 1138.79 253.305C1138.81 253.387 1138.85 253.464 1138.91 253.53C1138.96 253.595 1139.04 253.648 1139.11 253.684C1139.19 253.72 1139.28 253.739 1139.37 253.74H1233.46C1233.54 253.74 1233.63 253.723 1233.71 253.689C1233.79 253.654 1233.86 253.604 1233.91 253.541C1233.97 253.478 1234.02 253.404 1234.05 253.323C1234.07 253.242 1234.08 253.156 1234.08 253.07Z" fill="black"></path>
<path d="M1402.77 200.66C1405.31 197.14 1407.98 193.62 1410.78 190.1C1414.58 185.313 1417.47 181.973 1419.47 180.08C1429.91 170.18 1441.61 162.19 1455.6 158.96C1464.49 156.9 1473.01 156.187 1481.15 156.82C1483.48 157.007 1487.48 157.717 1493.14 158.95C1503.49 161.22 1512.22 165.16 1520.65 170.45C1520.71 170.49 1520.76 170.551 1520.78 170.623C1520.8 170.694 1520.8 170.772 1520.77 170.84L1489.19 243.25C1489.16 243.311 1489.12 243.365 1489.07 243.408C1489.03 243.452 1488.97 243.485 1488.9 243.504C1488.84 243.523 1488.78 243.528 1488.71 243.519C1488.64 243.509 1488.58 243.486 1488.53 243.45C1475.81 235.29 1461.83 232 1446.6 233.58C1423.01 236.03 1408.23 251.54 1403.27 274.05C1402.45 277.783 1402.05 283.33 1402.09 290.69C1402.12 298.343 1402.12 336.05 1402.08 403.81C1402.08 407.857 1401.94 410.827 1401.68 412.72C1401.66 412.865 1401.59 412.997 1401.48 413.093C1401.37 413.189 1401.23 413.241 1401.09 413.24H1314.91C1314.81 413.24 1314.73 413.203 1314.66 413.138C1314.59 413.072 1314.56 412.983 1314.56 412.89V163.47C1314.56 163.314 1314.62 163.164 1314.73 163.053C1314.84 162.942 1314.99 162.88 1315.15 162.88H1401.52C1401.66 162.88 1401.8 162.937 1401.9 163.038C1402 163.139 1402.06 163.277 1402.06 163.42V200.43C1402.06 200.514 1402.08 200.596 1402.13 200.664C1402.18 200.732 1402.25 200.782 1402.33 200.808C1402.41 200.834 1402.49 200.834 1402.57 200.807C1402.65 200.78 1402.72 200.729 1402.77 200.66Z" fill="black"></path>
<path d="M0.047693 164.01C0.0109881 163.931 -0.00494645 163.844 0.00133682 163.758C0.00762009 163.671 0.0359173 163.587 0.083658 163.513C0.131399 163.44 0.197055 163.379 0.274622 163.336C0.352189 163.294 0.439193 163.271 0.527689 163.27H107.438C107.58 163.269 107.719 163.312 107.836 163.393C107.952 163.474 108.04 163.588 108.088 163.72C109.888 168.74 111.238 172.347 112.138 174.54C130.578 219.33 145.958 256.7 164.228 299.44C164.253 299.495 164.294 299.542 164.346 299.575C164.397 299.607 164.457 299.625 164.518 299.625C164.579 299.625 164.638 299.607 164.69 299.575C164.741 299.542 164.782 299.495 164.808 299.44L222.548 163.66C222.649 163.426 222.817 163.226 223.03 163.086C223.243 162.946 223.492 162.871 223.748 162.87H320.808C320.893 162.87 320.978 162.891 321.053 162.931C321.129 162.971 321.193 163.029 321.24 163.1C321.287 163.171 321.315 163.252 321.321 163.336C321.328 163.42 321.313 163.504 321.278 163.58C318.978 168.813 317.728 171.633 317.528 172.04C314.654 178.027 309.038 189.907 300.678 207.68C292.484 225.107 283.728 243.213 274.408 262C255.868 299.36 232.898 346.9 213.308 386.3C208.448 396.07 204.538 405.13 200.128 413.17C200.006 413.391 199.828 413.576 199.611 413.704C199.395 413.832 199.149 413.9 198.898 413.9H130.208C130.102 413.901 129.999 413.872 129.909 413.817C129.819 413.762 129.746 413.684 129.698 413.59C106.431 368.937 77.2077 312.803 42.0277 245.19C31.7677 225.48 19.2677 202.3 8.5377 180.63C5.4077 174.3 2.44769 169.33 0.047693 164.01Z" fill="black"></path>
<path d="M1526.25 419.52C1557.73 419.52 1583.25 394 1583.25 362.52C1583.25 331.04 1557.73 305.52 1526.25 305.52C1494.77 305.52 1469.25 331.04 1469.25 362.52C1469.25 394 1494.77 419.52 1526.25 419.52Z" fill="black"></path>
</svg>