<svg width="1622" height="306" viewBox="0 0 1622 306" fill="none" xmlns="http://www.w3.org/2000/svg">
<path d="M1019.74 305.4C1019.63 305.327 1019.54 305.226 1019.48 305.107C1019.42 304.988 1019.4 304.856 1019.41 304.724C1019.42 304.592 1019.46 304.465 1019.53 304.355C1019.61 304.246 1019.71 304.158 1019.83 304.1C1030.35 298.947 1038.39 290.993 1043.95 280.24C1051.18 266.267 1051.68 251.84 1045.45 236.96C1036.56 215.71 1011.94 200.9 989.01 207.84C974.33 212.287 963.59 221.137 956.79 234.39C943.44 260.4 954.6 292.13 981.02 304.32C981.098 304.357 981.166 304.41 981.221 304.477C981.275 304.544 981.314 304.623 981.335 304.707C981.356 304.792 981.358 304.881 981.342 304.968C981.325 305.055 981.291 305.137 981.24 305.21C981.12 305.397 980.947 305.49 980.72 305.49C915.267 305.55 871.157 305.55 848.39 305.49C843.41 305.477 840.017 305.11 838.21 304.39C832.55 302.15 828.05 297.58 826.38 291.65C825.98 290.243 825.784 287.723 825.79 284.09C825.884 226.283 825.897 141.073 825.83 28.4601C825.824 20.3468 826.337 14.9935 827.37 12.4001C829.87 6.12012 834.717 2.18678 841.91 0.600118C843.73 0.200117 847.5 0.0201166 853.22 0.0601166C860.174 0.11345 888.957 0.0934524 939.57 0.000119048C943.99 -0.00654762 947.21 0.266785 949.23 0.820119C955.89 2.64012 960.32 6.84012 962.2 13.5201C962.674 15.1935 962.9 18.2401 962.88 22.6601C962.767 47.8068 962.71 67.7635 962.71 82.5301C962.71 86.0501 962.44 90.3601 963.58 92.9201C966.34 99.1001 972.75 99.1501 977.21 94.7501C981.944 90.0768 992.763 79.4334 1009.67 62.8201C1014.7 57.8801 1021.14 55.3434 1029 55.2101C1033.83 55.1234 1049.49 55.0635 1075.97 55.0301C1085.02 55.0168 1090.79 55.5535 1093.28 56.6401C1106.29 62.3101 1104.22 75.9901 1103.88 89.2701C1103.82 91.7035 1103 94.4968 1101.42 97.6501C1100.54 99.4168 1098.68 101.663 1095.85 104.39C1087.2 112.717 1074.95 124.69 1059.09 140.31C1055.52 143.83 1053.59 146.337 1053.31 147.83C1052.32 153.03 1053.8 155.31 1057.82 159.24C1074.54 175.573 1085.99 186.603 1092.17 192.33C1096.14 196.01 1099.32 199.03 1101.27 203.47C1103.03 207.463 1103.93 211.233 1103.98 214.78C1104.06 221.073 1104.08 242.95 1104.03 280.41C1104.02 286.73 1103.53 291.08 1102.55 293.46C1100.5 298.453 1096.91 302.003 1091.78 304.11C1089.41 305.09 1085.1 305.57 1078.87 305.55C1051.59 305.477 1032.21 305.493 1020.72 305.6C1020.27 305.607 1019.94 305.54 1019.74 305.4Z" fill="black"></path>
<path d="M117.72 57.7402C126.76 62.5902 126.85 70.6802 126.83 79.6802C126.717 120.36 126.683 152.727 126.73 176.78C126.737 183.594 129.6 188.55 135.32 191.65C140.61 194.52 147.28 194.82 152.83 192.16C159.423 189.007 162.727 183.297 162.74 175.03C162.8 139.52 162.7 108.65 162.77 78.8102C162.783 72.6702 163.243 68.5235 164.15 66.3702C166.023 61.9435 169.35 58.6869 174.13 56.6002C176.257 55.6669 179.89 55.1868 185.03 55.1602C217.463 55.0268 244.833 55.0502 267.14 55.2302C278.19 55.3202 286.38 62.8702 286.38 74.0302C286.413 123.624 286.43 148.707 286.43 149.28C286.48 160.83 285.09 172.15 278 181.56C260.96 204.18 243.86 228.12 227.42 249.55C216.507 263.77 209.297 273.43 205.79 278.53C200.177 286.684 195.77 292.034 192.57 294.58C186.537 299.374 180.03 302.644 173.05 304.39C169.397 305.31 163.983 305.717 156.81 305.61C143.703 305.417 133.947 305.4 127.54 305.56C114.35 305.89 104.75 303.13 94.6801 295.27C91.3334 292.657 86.9134 287.49 81.4201 279.77C78.4601 275.604 69.1634 262.947 53.5301 241.8C36.3101 218.514 22.5634 200.257 12.2901 187.03C7.62344 181.03 4.60344 176.334 3.23011 172.94C1.07677 167.64 0.010109 162.17 0.030109 156.53C0.0367756 154.024 0.026773 128.467 0.000106382 79.8602C-0.00656028 74.3935 0.300108 70.7068 0.920108 68.8002C3.01011 62.3102 7.98011 57.7602 14.9401 55.9202C16.8334 55.4202 19.7234 55.1635 23.6101 55.1502C41.5901 55.0902 70.2134 55.0902 109.48 55.1502C111.773 55.1568 114.52 56.0202 117.72 57.7402Z" fill="black"></path>
<path d="M784.97 55.1602C796.45 55.1702 803.99 63.5502 804.03 74.7802C804.11 95.3535 804.107 117.187 804.02 140.28C803.98 149.1 802.11 156.47 793.68 160.38C791.593 161.34 787.883 161.817 782.55 161.81C756.317 161.77 734.65 161.787 717.55 161.86C714.46 161.87 708.47 164.11 705.53 165.84C696.643 171.06 692.21 179.287 692.23 190.52C692.257 202.1 692.283 231.913 692.31 279.96C692.31 289.49 692.42 295.6 685.72 301.26C682.56 303.934 678.907 305.3 674.76 305.36C661.767 305.553 637.43 305.604 601.75 305.51C593.697 305.49 588.61 304.997 586.49 304.03C582.063 302.017 578.86 298.733 576.88 294.18C575.987 292.133 575.54 288.074 575.54 282C575.54 191.62 575.533 124.5 575.52 80.6402C575.513 74.1068 575.963 69.7302 576.87 67.5102C578.97 62.3235 582.687 58.6835 588.02 56.5902C590.527 55.6102 594.737 55.1168 600.65 55.1102C673.343 55.0702 734.783 55.0868 784.97 55.1602Z" fill="black"></path>
<path d="M1505.67 286.02C1505.71 294.46 1501.59 301.16 1493.7 304.35C1491.72 305.15 1488.73 305.547 1484.72 305.54C1466.85 305.5 1443.1 305.48 1413.47 305.48C1408.22 305.487 1404.46 305 1402.19 304.02C1393.88 300.45 1391.25 292.83 1391.29 283.9C1391.4 258.073 1391.4 190.403 1391.29 80.8901C1391.28 74.8635 1391.77 70.4635 1392.75 67.6901C1395.68 59.3701 1402.27 55.2001 1412.51 55.1801C1472.86 55.0468 1536.01 55.0601 1601.96 55.2201C1611.26 55.2401 1617.56 59.5601 1620.86 68.1801C1621.46 69.7535 1621.77 73.2068 1621.79 78.5401C1621.86 98.4268 1621.85 118.127 1621.78 137.64C1621.75 144.16 1621.25 148.537 1620.27 150.77C1618.31 155.243 1614.92 158.5 1610.1 160.54C1607.95 161.453 1604.46 161.893 1599.65 161.86C1585.51 161.76 1564.7 161.727 1537.22 161.76C1531.62 161.767 1527.38 162.26 1524.5 163.24C1515.76 166.22 1508.57 173.03 1506.3 182.31C1505.84 184.183 1505.6 187.343 1505.59 191.79C1505.5 224.263 1505.53 255.673 1505.67 286.02Z" fill="black"></path>
<path d="M1173.05 55.12C1271.26 55.1066 1328.81 55.1169 1345.72 55.1503C1347.83 55.1503 1350.27 55.6266 1353.04 56.5799C1362.77 59.9199 1367.63 66.8698 1367.64 77.4295C1367.66 99.6229 1367.65 118.49 1367.6 134.03C1367.59 138.73 1366.61 142.997 1364.68 146.83C1363.28 149.617 1360.5 153 1356.34 156.98C1347.05 165.874 1332.15 180.676 1311.63 201.39C1304.72 208.369 1309.56 216.87 1318.47 217.37C1319.66 217.437 1329.9 217.46 1349.19 217.44C1362.27 217.42 1367.68 226.82 1367.65 238.64C1367.62 247.493 1367.65 260.987 1367.73 279.12C1367.76 286.007 1367.25 290.697 1366.19 293.19C1364 298.33 1360.42 301.923 1355.45 303.97C1353.14 304.916 1348.77 305.41 1342.34 305.45C1258.72 305.98 1197.05 305.29 1173.44 305.56C1166.19 305.647 1160.95 305.183 1157.71 304.17C1143.35 299.7 1132.63 288.63 1128.53 274.36C1127.54 270.9 1127.05 263.663 1127.06 252.65C1127.18 170.55 1127.18 123.533 1127.07 111.599C1126.96 100.107 1127.47 92.2635 1128.59 88.0702C1132.71 72.6202 1144.71 60.3697 1160.51 56.2997C1163.55 55.513 1167.73 55.12 1173.05 55.12ZM1259.83 125.599C1250.27 122.499 1241.25 122.72 1231.43 125.84C1198.04 136.48 1186.17 179.65 1212.23 204.62C1217.52 209.687 1223.65 213.35 1230.62 215.61C1237.58 217.87 1244.69 218.503 1251.95 217.51C1287.71 212.609 1303.46 170.7 1282.68 142.48C1276.57 134.18 1269.39 128.709 1259.83 125.599Z" fill="black"></path>
<path d="M501.3 55.0604C514.755 55.0604 527.658 60.5738 537.171 70.3876C546.685 80.2014 552.031 93.5117 552.031 107.391V256.011C552.031 269.168 546.803 281.786 537.499 291.09C528.196 300.393 515.578 305.62 502.42 305.62H357.88C344.723 305.62 332.104 300.393 322.8 291.09C313.497 281.786 308.27 269.168 308.27 256.011V107.391C308.27 93.5119 313.615 80.2013 323.128 70.3876C332.642 60.5738 345.546 55.0604 359 55.0604H501.3ZM443.916 163.882C417.619 155.64 389.595 170.355 381.324 196.748C373.053 223.141 387.666 251.218 413.964 259.459C440.262 267.7 468.286 252.985 476.557 226.593C484.828 200.2 470.214 172.123 443.916 163.882Z" fill="black"></path>
</svg>