<svg width="551" height="144" viewBox="0 0 551 144" fill="none" xmlns="http://www.w3.org/2000/svg">
<path d="M93.2284 112.15C99.2281 119.07 105.105 112.492 108.264 107.199C111.423 101.906 113.42 96.9864 115.828 90.5947C120.66 77.7519 122.835 66.8877 127.344 55.3898C130.453 47.4616 135.81 37.3269 145.785 37.2631C151.949 37.2221 157.091 41.3434 158.354 47.5163C159.033 50.8308 157.98 54.7059 156.225 57.4915C154.67 59.9625 152.368 62.9532 150.49 65.9941C147.873 70.234 145.504 74.9222 143.382 80.0587C141.543 84.5114 140.376 87.4185 139.881 88.7802C136.375 98.4088 132.053 109.528 127.12 119.576C124.06 125.807 120.446 131.187 116.279 135.715C107.425 145.349 94.0171 147.095 83.8277 138.118C78.1973 133.158 73.5379 125.567 70.2326 119.02C67.3422 113.294 63.1585 104.705 57.6816 93.2526C55.1042 87.8577 52.7548 83.4127 50.6333 79.9174C47.7384 75.1532 45.313 71.4102 41.4378 67.7265C33.0446 59.7482 24.6833 68.4788 18.4557 73.9132C16.7962 75.3584 13.8237 76.5711 11.526 76.6121C7.40763 76.6911 4.23151 75.0225 1.99758 71.6063C-0.806221 67.3208 -0.564594 61.9229 2.13435 57.6009C6.9806 49.8415 15.1777 43.3175 23.767 40.2493C31.2073 37.5898 38.5777 37.6567 45.8783 40.4498C53.9842 43.5546 60.5675 50.3749 65.4092 57.7423C69.1962 63.5049 72.5744 69.772 75.5439 76.5437C78.0878 82.3489 80.6272 88.2088 83.162 94.1233C85.8701 100.438 88.7924 107.039 93.2284 112.15Z" fill="white"></path>
<path d="M253.41 59.3015C253.933 58.493 254.977 57.1815 256.542 55.367C261.624 49.4889 267.929 46.0544 275.457 45.0636C281.69 44.2475 289.786 45.4511 293.265 51.3049C295.918 55.7682 294.915 61.6676 290.908 64.9227C289.033 66.4424 287.036 67.2023 284.917 67.2023C280.395 67.2023 277.824 66.8922 274.423 68.6657C271.256 70.3191 268.62 72.74 266.517 75.9282C258.936 87.4216 257.901 103.442 260.54 116.435C261.347 120.415 262.305 123.356 261.247 126.72C259.551 132.118 254.664 135.2 249.001 134.475C243.303 133.75 240.212 129.287 238.393 124.081C234.8 113.799 232.315 103.951 230.939 94.5382C229.601 85.4171 229.463 76.337 230.524 67.298C230.861 64.4486 231.271 61.3621 232.571 58.8091C234.476 55.0615 238.146 52.358 242.409 52.2167C246.698 52.0769 250.048 53.9917 252.462 57.9611C252.612 58.2073 252.826 58.9869 253.054 59.3106C253.075 59.3392 253.102 59.3624 253.133 59.3782C253.165 59.3939 253.199 59.4017 253.235 59.4008C253.27 59.3999 253.304 59.3903 253.335 59.373C253.365 59.3557 253.391 59.3311 253.41 59.3015Z" fill="white"></path>
<path d="M310.179 9.23828C312.181 2.81498 319.188 -1.74402 325.985 0.644531C332.212 2.83283 334.98 8.75062 333.494 15.1514C333.266 16.13 332.142 20.4966 330.121 28.25C327.367 38.7966 325.094 49.3932 323.304 60.04C322.833 62.8421 322.446 65.4893 322.142 67.9814C321.527 73.0283 321.148 75.8875 320.965 79.7627C320.964 79.7994 320.975 79.8361 320.995 79.8672C321.014 79.8981 321.042 79.9225 321.076 79.9375C321.109 79.9526 321.147 79.9572 321.183 79.9512C321.22 79.9451 321.253 79.9285 321.28 79.9033C327.289 74.0921 333.545 68.7036 340.049 63.7373C345.374 59.6707 350.885 56.1721 356.581 53.2422C362.316 50.2879 368.412 50.9994 372.045 56.7666C375.519 62.283 372.889 69.1171 367.422 71.9893C357.657 77.1318 348.785 82.7847 340.989 89.9697C340.138 90.7539 339.203 91.7358 338.185 92.915C338.139 92.9704 338.111 93.0393 338.106 93.1113C338.101 93.1834 338.119 93.2552 338.158 93.3164C338.519 93.8877 338.875 94.3606 339.224 94.7344C345.511 101.468 353.367 106.848 362.207 109.569C368.416 111.478 374.563 111.267 380.648 108.936C380.693 108.918 380.733 108.891 380.767 108.856C380.801 108.822 380.828 108.782 380.845 108.737C380.863 108.692 380.872 108.644 380.87 108.596C380.868 108.548 380.855 108.5 380.835 108.457C375.637 97.6295 376.198 86.4599 380.165 75.0215C380.797 73.2039 381.933 70.6927 383.571 67.4893C392.429 50.1926 411.695 36.7847 431.741 43.8965C435.114 45.094 438.106 46.861 440.713 49.1982C446.68 54.5444 449.66 61.1508 449.654 69.0166C449.645 77.9751 445.231 86.3683 438.917 92.9561C431.162 101.044 421.187 106.684 410.601 109.656C410.557 109.669 410.517 109.695 410.487 109.73C410.457 109.766 410.439 109.81 410.433 109.856C410.428 109.902 410.436 109.949 410.457 109.99C410.477 110.032 410.51 110.066 410.55 110.089C415.269 112.674 421.903 112.679 427.196 111.681C438.087 109.62 447.994 103.305 455.142 95.0537C458.242 91.4658 460.878 87.312 462.109 82.6846C462.349 81.7789 462.488 80.0861 462.528 77.6064C462.552 76.181 462.615 73.9631 462.715 70.9541C462.902 65.4743 464.489 60.6327 469.836 58.335C472.882 57.0266 476.256 57.2497 479.214 58.9365C482.454 60.7814 484.282 63.7316 484.699 67.7861C484.703 67.8185 484.716 67.8493 484.738 67.874C484.759 67.8988 484.788 67.9168 484.82 67.9248C484.851 67.9327 484.884 67.9306 484.914 67.9189C484.943 67.9072 484.969 67.8856 484.986 67.8584C487.961 63.2873 491.61 59.3997 495.932 56.1963C503.965 50.2469 514.766 48.2597 524.38 51.3096C526.69 52.0421 528.363 52.9155 529.396 53.9307C531.279 55.777 532.542 57.8473 532.793 60.5645C533.376 66.8331 528.342 72.6188 521.878 71.8301C519.367 71.5231 518.001 71.3582 517.779 71.3369C511.857 70.8173 505.702 74.0505 501.859 78.5137C494.255 87.3444 491.082 99.9268 491.574 111.42C491.68 113.958 492.021 116.881 492.595 120.188C493.003 122.534 493.119 124.282 492.946 125.431C491.911 132.21 485.469 136.221 478.886 134.006C474.373 132.483 472.093 128.963 470.67 124.568C469.418 120.705 468.291 116.731 467.288 112.646C467.283 112.628 467.273 112.611 467.259 112.597C467.246 112.583 467.228 112.572 467.21 112.566C467.191 112.561 467.171 112.561 467.152 112.565C467.133 112.57 467.115 112.579 467.101 112.592C453.775 125.188 436.149 133.778 417.589 133.099C407.988 132.746 399.403 129.677 391.832 123.894C391.776 123.851 391.707 123.827 391.636 123.824C391.565 123.822 391.495 123.841 391.435 123.88C387.428 126.483 383.776 128.663 378.943 129.885C365.658 133.249 351.798 129.697 339.986 122.686C334.992 119.719 330.014 115.961 325.05 111.411C323.704 110.18 322.142 108.8 320.364 107.271C320.343 107.253 320.317 107.241 320.29 107.236C320.262 107.232 320.233 107.237 320.207 107.248C320.181 107.259 320.159 107.278 320.142 107.301C320.126 107.324 320.115 107.352 320.113 107.381C319.958 110.444 319.89 113.358 320.109 116.562C320.267 118.869 320.377 120.538 320.441 121.568C320.584 123.851 320.543 125.514 320.318 126.557C319.201 131.758 314.597 135.067 309.204 134.548C305.014 134.147 302.11 131.475 300.432 127.673C299.982 126.652 299.605 125.061 299.301 122.9C296.197 100.848 297.655 78.5728 300.605 56.375C301.939 46.3544 303.184 38.4245 304.339 32.5859C306.002 24.2004 307.948 16.4172 310.179 9.23828ZM427.756 66.1309C425.559 62.4472 421.269 62.2558 417.444 63.2998C414.849 64.0079 412.413 65.3389 410.136 67.293C403.311 73.1468 398.438 82.53 398.971 91.7803C398.973 91.8063 398.98 91.8317 398.993 91.8545C399.005 91.8773 399.023 91.8969 399.044 91.9121C399.066 91.9274 399.091 91.9377 399.117 91.9424C399.142 91.947 399.169 91.9462 399.194 91.9395C402.595 90.9912 406.021 89.7971 409.47 88.3564C413.856 86.5237 418.046 83.9123 422.04 80.5234C425.03 77.9841 427.729 74.6514 428.614 70.79C428.969 69.24 428.683 67.6869 427.756 66.1309Z" fill="white"></path>
<path d="M166.943 64.6777C175.022 58.1948 185.813 54.2961 196.066 55.6318C208.467 57.2457 217.466 64.9553 221.692 76.6992C223.193 80.8721 223.909 85.4009 223.836 90.2851C223.475 113.691 204.979 132.566 181.887 134.467C173.759 135.132 165.799 133.464 159.133 128.604C150.357 122.199 146.546 111.594 147.34 100.926C148.411 86.5651 155.86 73.5677 166.943 64.6777ZM198.127 79.3759C194.014 76.3579 188.056 77.1778 183.679 79.4892C177.847 82.5772 173.578 87.2735 170.873 93.5771C168.379 99.3898 167.171 107.523 173.198 111.448C176.106 113.34 179.84 113.417 183.136 112.752C189.68 111.43 194.886 108.015 198.752 102.508C200.691 99.7481 201.957 96.7713 202.549 93.5771C203.502 88.43 202.444 82.5445 198.127 79.3759Z" fill="white"></path>
<path d="M537.1 134.703C544.636 134.703 550.746 128.594 550.746 121.058C550.746 113.522 544.636 107.413 537.1 107.413C529.564 107.413 523.455 113.522 523.455 121.058C523.455 128.594 529.564 134.703 537.1 134.703Z" fill="white"></path>
</svg>