<svg width="1578" height="369" viewBox="0 0 1578 369" fill="none" xmlns="http://www.w3.org/2000/svg">
<path d="M680.049 110.781C680.045 110.857 680.067 110.932 680.111 110.995C680.154 111.057 680.217 111.104 680.289 111.128C680.362 111.152 680.44 111.151 680.512 111.126C680.584 111.102 680.646 111.054 680.689 110.991C699.839 83.1207 729.369 71.8507 762.479 72.8107C771.229 73.0707 779.029 73.1907 784.839 80.7007C789.319 86.4907 789.119 91.1007 789.169 99.5607C789.249 112.227 789.245 119.514 789.159 121.421C788.665 132.287 783.302 138.804 773.069 140.971C771.102 141.384 767.092 141.391 761.039 140.991C755.665 140.631 749.355 140.761 742.109 141.381C722.539 143.051 705.259 150.811 694.149 166.621C683.929 181.151 680.299 199.741 680.249 217.501C680.109 261.901 680.092 302.481 680.199 339.241C680.239 350.181 676.229 358.411 665.529 362.341C663.175 363.207 658.805 363.601 652.419 363.521C642.625 363.394 635.585 363.374 631.299 363.461C626.485 363.547 622.845 363.097 620.379 362.111C614.439 359.717 610.412 355.701 608.299 350.061C607.372 347.601 606.909 343.331 606.909 337.251C606.909 207.424 606.905 128.424 606.899 100.251C606.899 83.8907 616.769 76.5107 631.759 76.7107C639.365 76.8174 646.919 76.8107 654.419 76.6907C659.672 76.6107 663.615 77.1007 666.249 78.1607C674.319 81.3907 679.449 88.3107 680.079 97.1007C680.329 100.701 680.139 105.451 680.049 110.781Z" fill="black"></path>
<path d="M1466.11 110.841C1466.11 110.914 1466.13 110.986 1466.17 111.046C1466.21 111.107 1466.27 111.153 1466.34 111.179C1466.41 111.205 1466.48 111.21 1466.55 111.192C1466.63 111.175 1466.69 111.136 1466.74 111.081C1470.2 106.961 1476.36 99.1707 1481.8 94.6007C1503.89 76.0607 1529.53 71.1407 1558.2 73.1407C1562.33 73.4274 1565.58 74.264 1567.95 75.6507C1574.36 79.3974 1577.61 85.254 1577.7 93.2207C1577.73 96.234 1577.73 104.284 1577.72 117.371C1577.71 122.897 1577.34 126.604 1576.6 128.491C1573.45 136.491 1566.72 141.321 1557.98 141.141C1543.98 140.851 1529.58 140.091 1515.06 143.781C1478.99 152.941 1466.18 186.181 1466.13 219.991C1466.08 250.311 1466.1 290.311 1466.18 339.991C1466.21 353.711 1457.9 363.571 1443.75 363.451C1432.57 363.357 1424.29 363.361 1418.92 363.461C1413.13 363.567 1409.24 363.207 1407.27 362.381C1399.22 359.021 1393.48 351.941 1393.48 342.991C1393.47 319.357 1393.46 239.421 1393.45 103.181C1393.45 97.2874 1393.76 93.354 1394.37 91.3807C1397.07 82.7507 1405.15 76.9107 1414.28 76.8007C1414.97 76.794 1423.72 76.764 1440.52 76.7107C1446.28 76.6974 1450.25 77.1174 1452.44 77.9707C1460.96 81.2907 1465.84 88.6807 1466.1 98.2307C1466.2 101.944 1466.2 106.147 1466.11 110.841Z" fill="black"></path>
<path d="M153.059 263.211C153.092 263.281 153.144 263.34 153.21 263.381C153.275 263.422 153.351 263.444 153.428 263.444C153.506 263.444 153.582 263.422 153.647 263.381C153.713 263.34 153.765 263.281 153.799 263.211C157.745 254.744 161.099 247.361 163.859 241.061C173.959 218.007 195.589 169.304 228.749 94.9508C231.329 89.1574 233.452 85.4941 235.118 83.9607C241.248 78.3207 246.739 76.7607 255.949 76.7807C268.529 76.8141 275.722 76.8174 277.529 76.7907C290.509 76.6307 300.418 87.2207 299.548 100.011C299.382 102.431 297.912 106.567 295.138 112.421C271.392 162.501 247.699 212.701 224.059 263.021C215.919 280.347 209.409 294.041 204.529 304.101C194.095 325.614 187.535 339.287 184.849 345.121C182.562 350.081 180.578 353.484 178.898 355.331C172.218 362.671 165.099 363.701 154.529 363.471C147.309 363.311 140.758 364.251 134.898 362.351C128.025 360.124 122.995 355.744 119.809 349.211C54.8085 215.837 16.6852 137.477 5.43851 114.131C3.74851 110.621 1.43851 106.601 0.648506 103.131C-1.27149 94.6907 1.07184 87.5341 7.67851 81.6607C12.0185 77.8007 18.4785 76.5607 25.1885 76.7107C30.3818 76.8307 40.0818 76.8274 54.2885 76.7008C61.4818 76.6341 67.4518 79.0441 72.1985 83.9307C74.0985 85.8841 76.0818 89.1974 78.1485 93.8707C89.0018 118.397 107.229 159.757 132.829 217.951C142.782 240.571 149.525 255.657 153.059 263.211Z" fill="black"></path>
<path d="M840.029 0.000480463C848.802 0.0538137 859.052 0.070285 870.779 0.0502852C881.299 0.0302852 889.949 7.55015 891.639 17.8901C891.959 19.8501 892.118 24.274 892.118 31.1606C892.068 82.3305 892.078 135.011 892.118 189.92C892.119 190.072 892.155 190.222 892.221 190.359C892.287 190.496 892.383 190.617 892.502 190.711C892.621 190.806 892.759 190.873 892.907 190.908C893.056 190.942 893.21 190.943 893.359 190.911C894.052 190.757 894.778 190.287 895.538 189.5C903.818 180.927 936.439 148.02 993.399 90.7798C999.098 85.0533 1003.17 81.5768 1005.62 80.3501C1010.38 77.9768 1015.61 76.7834 1021.29 76.77C1032.29 76.75 1042.78 76.7634 1052.73 76.8101C1061.58 76.8501 1071.04 82.5406 1072.44 91.8306C1073.32 97.6504 1072.11 104.55 1068.01 108.72C1029.25 148.093 994.262 183.763 963.049 215.73C962.949 215.833 962.889 215.969 962.88 216.114C962.871 216.258 962.913 216.402 962.998 216.52C972.365 228.693 983.902 244.017 997.609 262.49C1006.8 274.88 1016.34 285.63 1028.82 294.19C1049.5 308.39 1080.7 313.1 1103.63 302.31C1103.71 302.271 1103.79 302.214 1103.85 302.143C1103.91 302.073 1103.95 301.991 1103.98 301.902C1104 301.813 1104.01 301.719 1104 301.627C1103.98 301.536 1103.95 301.448 1103.9 301.371C1064.94 241.571 1074.9 160.55 1126.48 111.67C1165.15 75.0304 1223.14 64.9302 1273.6 79.4702C1287.71 83.5368 1301.23 90.2603 1314.17 99.6401C1345.98 122.71 1364.72 158.86 1367.46 198.65C1368.06 207.416 1368.17 216.28 1367.79 225.24C1367.36 235.24 1361.74 244.06 1352.64 247.64C1350.13 248.627 1345.5 249.14 1338.76 249.18C1333.41 249.214 1324.66 249.233 1312.53 249.24C1231.76 249.266 1184.85 249.25 1171.78 249.19C1164.5 249.157 1158.77 249.227 1154.6 249.4C1154.45 249.406 1154.3 249.444 1154.17 249.511C1154.04 249.578 1153.92 249.673 1153.83 249.789C1153.73 249.904 1153.67 250.039 1153.63 250.182C1153.6 250.326 1153.59 250.475 1153.62 250.621C1154 252.574 1154.67 254.667 1155.63 256.9C1163 274.067 1174.29 286.763 1189.48 294.99C1224.32 313.86 1267 306.05 1296.77 280.97C1300.54 277.79 1305.73 276.024 1312.34 275.67C1316.89 275.43 1324.13 275.357 1334.05 275.451C1348.14 275.581 1358.19 285.76 1355.39 300.22C1354.84 303.074 1353 306.7 1349.87 311.1C1339.64 325.533 1326.98 337.107 1311.89 345.82C1300.6 352.346 1289.1 357.2 1277.41 360.38C1235.76 371.69 1189.95 367.99 1151.57 347.52C1151.37 347.411 1151.14 347.358 1150.9 347.367C1150.67 347.375 1150.45 347.445 1150.25 347.57C1133.76 358.3 1114.37 365.361 1094.68 367.701C1051.31 372.851 1008.63 362.04 974.529 335.23C951.019 316.75 934.368 292.26 916.918 268.35C911.678 261.17 904.839 253.521 895.729 253.121C891.619 252.941 892.099 255.29 892.099 258.75C892.079 281.964 892.098 308.71 892.158 338.99C892.178 349.5 888.388 358.271 878.208 362.161C875.795 363.074 872.325 363.513 867.799 363.48C861.039 363.433 851.302 363.397 838.589 363.371C829.659 363.351 820.959 355.94 819.339 346.69C818.999 344.75 818.828 340.97 818.828 335.35C818.862 210.697 818.862 107.793 818.828 26.6401C818.828 20.6202 819.266 16.3804 820.139 13.9204C823.119 5.50042 830.929 -0.059495 840.029 0.000480463ZM1300.24 185.75C1288.72 153.52 1256.85 134.45 1222.96 136.67C1190 138.831 1162.11 159.051 1152.78 191.201C1152.68 191.535 1152.7 191.894 1152.84 192.215C1152.97 192.537 1153.22 192.8 1153.53 192.96C1154.52 193.46 1155.69 193.7 1157.05 193.68C1172.66 193.42 1218.91 193.38 1295.8 193.56C1297.62 193.56 1299.33 193.297 1300.92 192.77C1301.17 192.688 1301.38 192.522 1301.52 192.299C1301.66 192.077 1301.72 191.811 1301.69 191.55C1301.44 189.67 1300.95 187.737 1300.24 185.75Z" fill="black"></path>
<path d="M440.848 73.0802C499.198 73.7402 550.808 106.77 574.418 160.14C593.598 203.5 590.978 253.75 567.218 294.67C539.948 341.61 491.239 367.25 437.519 366.64C383.789 366.03 335.669 339.29 309.479 291.75C286.649 250.3 285.169 200 305.329 157.09C330.139 104.27 382.488 72.4204 440.848 73.0802ZM438.525 138.502C394.343 138.811 358.783 175.831 359.1 221.189C359.417 266.547 395.491 303.066 439.672 302.758C483.854 302.449 519.413 265.429 519.096 220.071C518.779 174.713 482.707 138.194 438.525 138.502Z" fill="black"></path>
</svg>